<mxfile host="app.diagrams.net" modified="2023-08-02T22:58:42.932Z" agent="Mozilla/5.0 (Windows NT 10.0; Win64; x64) AppleWebKit/537.36 (KHTML, like Gecko) Chrome/115.0.0.0 Safari/537.36" etag="AwSRYtmlmY1URABXdTZD" version="21.6.6" type="device">
  <diagram name="Side-1" id="vw_rrur5J-iDs2LkF42w">
    <mxGraphModel dx="1619" dy="869" grid="1" gridSize="10" guides="1" tooltips="1" connect="1" arrows="1" fold="1" page="1" pageScale="1" pageWidth="827" pageHeight="1169" math="0" shadow="0">
      <root>
        <mxCell id="0" />
        <mxCell id="1" parent="0" />
        <mxCell id="frLlcrFo8pHCrfh-rTs9-1" value="" style="endArrow=none;dashed=1;html=1;dashPattern=1 3;strokeWidth=2;rounded=0;" edge="1" parent="1" source="frLlcrFo8pHCrfh-rTs9-113">
          <mxGeometry width="50" height="50" relative="1" as="geometry">
            <mxPoint x="160" y="1080" as="sourcePoint" />
            <mxPoint x="160" y="270" as="targetPoint" />
          </mxGeometry>
        </mxCell>
        <mxCell id="frLlcrFo8pHCrfh-rTs9-19" value="" style="rounded=0;whiteSpace=wrap;html=1;labelBackgroundColor=none;fillColor=none;" vertex="1" parent="1">
          <mxGeometry x="310" y="280" width="20" height="60" as="geometry" />
        </mxCell>
        <mxCell id="frLlcrFo8pHCrfh-rTs9-2" value="Entry Point" style="rounded=1;whiteSpace=wrap;html=1;labelBackgroundColor=none;fillColor=none;" vertex="1" parent="1">
          <mxGeometry x="100" y="210" width="120" height="60" as="geometry" />
        </mxCell>
        <mxCell id="frLlcrFo8pHCrfh-rTs9-3" value="" style="endArrow=none;dashed=1;html=1;dashPattern=1 3;strokeWidth=2;rounded=0;" edge="1" parent="1" source="frLlcrFo8pHCrfh-rTs9-19">
          <mxGeometry width="50" height="50" relative="1" as="geometry">
            <mxPoint x="320" y="850" as="sourcePoint" />
            <mxPoint x="320" y="270" as="targetPoint" />
          </mxGeometry>
        </mxCell>
        <mxCell id="frLlcrFo8pHCrfh-rTs9-4" value="Game" style="rounded=1;whiteSpace=wrap;html=1;labelBackgroundColor=none;fillColor=none;" vertex="1" parent="1">
          <mxGeometry x="260" y="210" width="120" height="60" as="geometry" />
        </mxCell>
        <mxCell id="frLlcrFo8pHCrfh-rTs9-6" value="Services Runner" style="rounded=1;whiteSpace=wrap;html=1;labelBackgroundColor=none;fillColor=none;" vertex="1" parent="1">
          <mxGeometry x="420" y="210" width="120" height="60" as="geometry" />
        </mxCell>
        <mxCell id="frLlcrFo8pHCrfh-rTs9-7" value="" style="endArrow=none;dashed=1;html=1;dashPattern=1 3;strokeWidth=2;rounded=0;" edge="1" parent="1" source="frLlcrFo8pHCrfh-rTs9-46">
          <mxGeometry width="50" height="50" relative="1" as="geometry">
            <mxPoint x="640" y="850" as="sourcePoint" />
            <mxPoint x="640" y="270" as="targetPoint" />
          </mxGeometry>
        </mxCell>
        <mxCell id="frLlcrFo8pHCrfh-rTs9-8" value="Service Locator&lt;br&gt;/ Service Registry" style="rounded=1;whiteSpace=wrap;html=1;labelBackgroundColor=none;fillColor=none;" vertex="1" parent="1">
          <mxGeometry x="580" y="210" width="120" height="60" as="geometry" />
        </mxCell>
        <mxCell id="frLlcrFo8pHCrfh-rTs9-11" value="" style="endArrow=none;dashed=1;html=1;dashPattern=1 3;strokeWidth=2;rounded=0;" edge="1" parent="1" source="frLlcrFo8pHCrfh-rTs9-48">
          <mxGeometry width="50" height="50" relative="1" as="geometry">
            <mxPoint x="800" y="850" as="sourcePoint" />
            <mxPoint x="800" y="270" as="targetPoint" />
          </mxGeometry>
        </mxCell>
        <mxCell id="frLlcrFo8pHCrfh-rTs9-12" value="Located&lt;br&gt;Pre-processing&lt;br&gt;Services" style="rounded=1;whiteSpace=wrap;html=1;labelBackgroundColor=none;fillColor=none;" vertex="1" parent="1">
          <mxGeometry x="740" y="210" width="120" height="60" as="geometry" />
        </mxCell>
        <mxCell id="frLlcrFo8pHCrfh-rTs9-13" value="" style="endArrow=none;dashed=1;html=1;dashPattern=1 3;strokeWidth=2;rounded=0;exitX=0.5;exitY=0;exitDx=0;exitDy=0;" edge="1" parent="1" source="frLlcrFo8pHCrfh-rTs9-86">
          <mxGeometry width="50" height="50" relative="1" as="geometry">
            <mxPoint x="1120" y="850" as="sourcePoint" />
            <mxPoint x="1120" y="270" as="targetPoint" />
          </mxGeometry>
        </mxCell>
        <mxCell id="frLlcrFo8pHCrfh-rTs9-14" value="Located&lt;br&gt;Post-processing&lt;br&gt;Services" style="rounded=1;whiteSpace=wrap;html=1;labelBackgroundColor=none;fillColor=none;" vertex="1" parent="1">
          <mxGeometry x="1060" y="210" width="120" height="60" as="geometry" />
        </mxCell>
        <mxCell id="frLlcrFo8pHCrfh-rTs9-15" value="" style="endArrow=none;dashed=1;html=1;dashPattern=1 3;strokeWidth=2;rounded=0;" edge="1" parent="1" source="frLlcrFo8pHCrfh-rTs9-66">
          <mxGeometry width="50" height="50" relative="1" as="geometry">
            <mxPoint x="960" y="850" as="sourcePoint" />
            <mxPoint x="960" y="270" as="targetPoint" />
          </mxGeometry>
        </mxCell>
        <mxCell id="frLlcrFo8pHCrfh-rTs9-16" value="Located&lt;br&gt;Main processing&lt;br&gt;Services" style="rounded=1;whiteSpace=wrap;html=1;labelBackgroundColor=none;fillColor=none;" vertex="1" parent="1">
          <mxGeometry x="900" y="210" width="120" height="60" as="geometry" />
        </mxCell>
        <mxCell id="frLlcrFo8pHCrfh-rTs9-18" value="" style="endArrow=classic;html=1;rounded=0;exitX=1;exitY=0.25;exitDx=0;exitDy=0;" edge="1" parent="1" source="frLlcrFo8pHCrfh-rTs9-17">
          <mxGeometry width="50" height="50" relative="1" as="geometry">
            <mxPoint x="200" y="350" as="sourcePoint" />
            <mxPoint x="310" y="295" as="targetPoint" />
          </mxGeometry>
        </mxCell>
        <mxCell id="frLlcrFo8pHCrfh-rTs9-22" value="Create a Game" style="edgeLabel;html=1;align=center;verticalAlign=middle;resizable=0;points=[];labelBackgroundColor=none;" vertex="1" connectable="0" parent="frLlcrFo8pHCrfh-rTs9-18">
          <mxGeometry x="-0.365" y="3" relative="1" as="geometry">
            <mxPoint x="26" y="-12" as="offset" />
          </mxGeometry>
        </mxCell>
        <mxCell id="frLlcrFo8pHCrfh-rTs9-33" value="Update" style="edgeLabel;html=1;align=center;verticalAlign=middle;resizable=0;points=[];labelBackgroundColor=none;" vertex="1" connectable="0" parent="frLlcrFo8pHCrfh-rTs9-18">
          <mxGeometry x="-0.365" y="3" relative="1" as="geometry">
            <mxPoint x="156" y="78" as="offset" />
          </mxGeometry>
        </mxCell>
        <mxCell id="frLlcrFo8pHCrfh-rTs9-21" value="" style="endArrow=none;dashed=1;html=1;dashPattern=1 3;strokeWidth=2;rounded=0;" edge="1" parent="1" source="frLlcrFo8pHCrfh-rTs9-29" target="frLlcrFo8pHCrfh-rTs9-19">
          <mxGeometry width="50" height="50" relative="1" as="geometry">
            <mxPoint x="320" y="850" as="sourcePoint" />
            <mxPoint x="320" y="270" as="targetPoint" />
          </mxGeometry>
        </mxCell>
        <mxCell id="frLlcrFo8pHCrfh-rTs9-31" value="" style="endArrow=none;dashed=1;html=1;dashPattern=1 3;strokeWidth=2;rounded=0;exitX=0.5;exitY=0;exitDx=0;exitDy=0;" edge="1" parent="1" source="frLlcrFo8pHCrfh-rTs9-52" target="frLlcrFo8pHCrfh-rTs9-29">
          <mxGeometry width="50" height="50" relative="1" as="geometry">
            <mxPoint x="320" y="520" as="sourcePoint" />
            <mxPoint x="320" y="340" as="targetPoint" />
          </mxGeometry>
        </mxCell>
        <mxCell id="frLlcrFo8pHCrfh-rTs9-29" value="" style="rounded=0;whiteSpace=wrap;html=1;labelBackgroundColor=none;fillColor=none;" vertex="1" parent="1">
          <mxGeometry x="310" y="370" width="20" height="60" as="geometry" />
        </mxCell>
        <mxCell id="frLlcrFo8pHCrfh-rTs9-32" value="" style="endArrow=classic;html=1;rounded=0;exitX=1;exitY=0.75;exitDx=0;exitDy=0;entryX=1;entryY=0.25;entryDx=0;entryDy=0;" edge="1" parent="1" source="frLlcrFo8pHCrfh-rTs9-19" target="frLlcrFo8pHCrfh-rTs9-29">
          <mxGeometry width="50" height="50" relative="1" as="geometry">
            <mxPoint x="200" y="410" as="sourcePoint" />
            <mxPoint x="400" y="400" as="targetPoint" />
            <Array as="points">
              <mxPoint x="400" y="325" />
              <mxPoint x="400" y="385" />
            </Array>
          </mxGeometry>
        </mxCell>
        <mxCell id="frLlcrFo8pHCrfh-rTs9-38" value="" style="endArrow=classic;html=1;rounded=0;exitX=1;exitY=0.75;exitDx=0;exitDy=0;entryX=0;entryY=0.25;entryDx=0;entryDy=0;" edge="1" parent="1" source="frLlcrFo8pHCrfh-rTs9-29" target="frLlcrFo8pHCrfh-rTs9-41">
          <mxGeometry width="50" height="50" relative="1" as="geometry">
            <mxPoint x="380" y="480" as="sourcePoint" />
            <mxPoint x="460" y="475" as="targetPoint" />
          </mxGeometry>
        </mxCell>
        <mxCell id="frLlcrFo8pHCrfh-rTs9-39" value="Run pre-processors" style="edgeLabel;html=1;align=center;verticalAlign=middle;resizable=0;points=[];labelBackgroundColor=none;" vertex="1" connectable="0" parent="frLlcrFo8pHCrfh-rTs9-38">
          <mxGeometry x="-0.365" y="3" relative="1" as="geometry">
            <mxPoint x="26" y="-12" as="offset" />
          </mxGeometry>
        </mxCell>
        <mxCell id="frLlcrFo8pHCrfh-rTs9-42" value="" style="endArrow=none;dashed=1;html=1;dashPattern=1 3;strokeWidth=2;rounded=0;" edge="1" parent="1" source="frLlcrFo8pHCrfh-rTs9-58" target="frLlcrFo8pHCrfh-rTs9-41">
          <mxGeometry width="50" height="50" relative="1" as="geometry">
            <mxPoint x="480" y="850" as="sourcePoint" />
            <mxPoint x="480" y="270" as="targetPoint" />
          </mxGeometry>
        </mxCell>
        <mxCell id="frLlcrFo8pHCrfh-rTs9-41" value="" style="rounded=0;whiteSpace=wrap;html=1;labelBackgroundColor=none;fillColor=none;" vertex="1" parent="1">
          <mxGeometry x="470" y="400" width="20" height="60" as="geometry" />
        </mxCell>
        <mxCell id="frLlcrFo8pHCrfh-rTs9-44" value="" style="endArrow=classic;html=1;rounded=0;exitX=1;exitY=0.75;exitDx=0;exitDy=0;entryX=0;entryY=0.25;entryDx=0;entryDy=0;" edge="1" parent="1" source="frLlcrFo8pHCrfh-rTs9-41" target="frLlcrFo8pHCrfh-rTs9-46">
          <mxGeometry width="50" height="50" relative="1" as="geometry">
            <mxPoint x="340" y="425" as="sourcePoint" />
            <mxPoint x="620" y="445" as="targetPoint" />
          </mxGeometry>
        </mxCell>
        <mxCell id="frLlcrFo8pHCrfh-rTs9-45" value="Locate pre-processors" style="edgeLabel;html=1;align=center;verticalAlign=middle;resizable=0;points=[];labelBackgroundColor=none;" vertex="1" connectable="0" parent="frLlcrFo8pHCrfh-rTs9-44">
          <mxGeometry x="-0.365" y="3" relative="1" as="geometry">
            <mxPoint x="26" y="-12" as="offset" />
          </mxGeometry>
        </mxCell>
        <mxCell id="frLlcrFo8pHCrfh-rTs9-47" value="" style="endArrow=none;dashed=1;html=1;dashPattern=1 3;strokeWidth=2;rounded=0;exitX=0.5;exitY=0;exitDx=0;exitDy=0;" edge="1" parent="1" source="frLlcrFo8pHCrfh-rTs9-63" target="frLlcrFo8pHCrfh-rTs9-46">
          <mxGeometry width="50" height="50" relative="1" as="geometry">
            <mxPoint x="640" y="850" as="sourcePoint" />
            <mxPoint x="640" y="270" as="targetPoint" />
          </mxGeometry>
        </mxCell>
        <mxCell id="frLlcrFo8pHCrfh-rTs9-46" value="" style="rounded=0;whiteSpace=wrap;html=1;labelBackgroundColor=none;fillColor=none;" vertex="1" parent="1">
          <mxGeometry x="630" y="430" width="20" height="60" as="geometry" />
        </mxCell>
        <mxCell id="frLlcrFo8pHCrfh-rTs9-48" value="" style="rounded=0;whiteSpace=wrap;html=1;labelBackgroundColor=none;fillColor=none;" vertex="1" parent="1">
          <mxGeometry x="790" y="460" width="20" height="60" as="geometry" />
        </mxCell>
        <mxCell id="frLlcrFo8pHCrfh-rTs9-50" value="" style="endArrow=classic;html=1;rounded=0;exitX=1;exitY=0.75;exitDx=0;exitDy=0;entryX=0;entryY=0.25;entryDx=0;entryDy=0;" edge="1" parent="1" source="frLlcrFo8pHCrfh-rTs9-46" target="frLlcrFo8pHCrfh-rTs9-48">
          <mxGeometry width="50" height="50" relative="1" as="geometry">
            <mxPoint x="500" y="455" as="sourcePoint" />
            <mxPoint x="780" y="445" as="targetPoint" />
          </mxGeometry>
        </mxCell>
        <mxCell id="frLlcrFo8pHCrfh-rTs9-51" value="process entities" style="edgeLabel;html=1;align=center;verticalAlign=middle;resizable=0;points=[];labelBackgroundColor=none;" vertex="1" connectable="0" parent="frLlcrFo8pHCrfh-rTs9-50">
          <mxGeometry x="-0.365" y="3" relative="1" as="geometry">
            <mxPoint x="26" y="-12" as="offset" />
          </mxGeometry>
        </mxCell>
        <mxCell id="frLlcrFo8pHCrfh-rTs9-54" value="" style="endArrow=none;dashed=1;html=1;dashPattern=1 3;strokeWidth=2;rounded=0;" edge="1" parent="1" source="frLlcrFo8pHCrfh-rTs9-71" target="frLlcrFo8pHCrfh-rTs9-52">
          <mxGeometry width="50" height="50" relative="1" as="geometry">
            <mxPoint x="320" y="850" as="sourcePoint" />
            <mxPoint x="320" y="520" as="targetPoint" />
          </mxGeometry>
        </mxCell>
        <mxCell id="frLlcrFo8pHCrfh-rTs9-52" value="" style="rounded=0;whiteSpace=wrap;html=1;labelBackgroundColor=none;fillColor=none;" vertex="1" parent="1">
          <mxGeometry x="310" y="490" width="20" height="60" as="geometry" />
        </mxCell>
        <mxCell id="frLlcrFo8pHCrfh-rTs9-55" value="" style="endArrow=classic;html=1;rounded=0;exitX=0;exitY=0.75;exitDx=0;exitDy=0;entryX=1;entryY=0.25;entryDx=0;entryDy=0;" edge="1" parent="1" source="frLlcrFo8pHCrfh-rTs9-48" target="frLlcrFo8pHCrfh-rTs9-52">
          <mxGeometry width="50" height="50" relative="1" as="geometry">
            <mxPoint x="650" y="550" as="sourcePoint" />
            <mxPoint x="790" y="550" as="targetPoint" />
          </mxGeometry>
        </mxCell>
        <mxCell id="frLlcrFo8pHCrfh-rTs9-57" value="pass done" style="edgeLabel;html=1;align=center;verticalAlign=middle;resizable=0;points=[];" vertex="1" connectable="0" parent="frLlcrFo8pHCrfh-rTs9-55">
          <mxGeometry x="0.0972" y="-1" relative="1" as="geometry">
            <mxPoint x="23" y="-14" as="offset" />
          </mxGeometry>
        </mxCell>
        <mxCell id="frLlcrFo8pHCrfh-rTs9-60" value="" style="endArrow=none;dashed=1;html=1;dashPattern=1 3;strokeWidth=2;rounded=0;exitX=0.5;exitY=0;exitDx=0;exitDy=0;" edge="1" parent="1" source="frLlcrFo8pHCrfh-rTs9-76" target="frLlcrFo8pHCrfh-rTs9-58">
          <mxGeometry width="50" height="50" relative="1" as="geometry">
            <mxPoint x="480" y="850" as="sourcePoint" />
            <mxPoint x="480" y="460" as="targetPoint" />
          </mxGeometry>
        </mxCell>
        <mxCell id="frLlcrFo8pHCrfh-rTs9-58" value="" style="rounded=0;whiteSpace=wrap;html=1;labelBackgroundColor=none;fillColor=none;" vertex="1" parent="1">
          <mxGeometry x="470" y="520" width="20" height="60" as="geometry" />
        </mxCell>
        <mxCell id="frLlcrFo8pHCrfh-rTs9-61" value="" style="endArrow=classic;html=1;rounded=0;exitX=1;exitY=0.75;exitDx=0;exitDy=0;entryX=0;entryY=0.25;entryDx=0;entryDy=0;" edge="1" parent="1" source="frLlcrFo8pHCrfh-rTs9-52" target="frLlcrFo8pHCrfh-rTs9-58">
          <mxGeometry width="50" height="50" relative="1" as="geometry">
            <mxPoint x="370" y="630" as="sourcePoint" />
            <mxPoint x="510" y="630" as="targetPoint" />
          </mxGeometry>
        </mxCell>
        <mxCell id="frLlcrFo8pHCrfh-rTs9-62" value="Run main processors" style="edgeLabel;html=1;align=center;verticalAlign=middle;resizable=0;points=[];labelBackgroundColor=none;" vertex="1" connectable="0" parent="frLlcrFo8pHCrfh-rTs9-61">
          <mxGeometry x="-0.365" y="3" relative="1" as="geometry">
            <mxPoint x="26" y="-12" as="offset" />
          </mxGeometry>
        </mxCell>
        <mxCell id="frLlcrFo8pHCrfh-rTs9-64" value="" style="endArrow=classic;html=1;rounded=0;exitX=1;exitY=0.75;exitDx=0;exitDy=0;entryX=0;entryY=0.25;entryDx=0;entryDy=0;" edge="1" parent="1" source="frLlcrFo8pHCrfh-rTs9-58" target="frLlcrFo8pHCrfh-rTs9-63">
          <mxGeometry width="50" height="50" relative="1" as="geometry">
            <mxPoint x="480" y="660" as="sourcePoint" />
            <mxPoint x="620" y="660" as="targetPoint" />
          </mxGeometry>
        </mxCell>
        <mxCell id="frLlcrFo8pHCrfh-rTs9-65" value="Locate main processors" style="edgeLabel;html=1;align=center;verticalAlign=middle;resizable=0;points=[];labelBackgroundColor=none;" vertex="1" connectable="0" parent="frLlcrFo8pHCrfh-rTs9-64">
          <mxGeometry x="-0.365" y="3" relative="1" as="geometry">
            <mxPoint x="26" y="-12" as="offset" />
          </mxGeometry>
        </mxCell>
        <mxCell id="frLlcrFo8pHCrfh-rTs9-67" value="" style="endArrow=none;dashed=1;html=1;dashPattern=1 3;strokeWidth=2;rounded=0;entryX=0.5;entryY=1;entryDx=0;entryDy=0;" edge="1" parent="1" target="frLlcrFo8pHCrfh-rTs9-48">
          <mxGeometry width="50" height="50" relative="1" as="geometry">
            <mxPoint x="800" y="1100" as="sourcePoint" />
            <mxPoint x="800" y="520" as="targetPoint" />
          </mxGeometry>
        </mxCell>
        <mxCell id="frLlcrFo8pHCrfh-rTs9-68" value="" style="endArrow=classic;html=1;rounded=0;exitX=1;exitY=0.75;exitDx=0;exitDy=0;entryX=0;entryY=0.25;entryDx=0;entryDy=0;" edge="1" parent="1" source="frLlcrFo8pHCrfh-rTs9-63" target="frLlcrFo8pHCrfh-rTs9-66">
          <mxGeometry width="50" height="50" relative="1" as="geometry">
            <mxPoint x="710" y="560" as="sourcePoint" />
            <mxPoint x="850" y="560" as="targetPoint" />
          </mxGeometry>
        </mxCell>
        <mxCell id="frLlcrFo8pHCrfh-rTs9-69" value="process entities" style="edgeLabel;html=1;align=center;verticalAlign=middle;resizable=0;points=[];labelBackgroundColor=none;" vertex="1" connectable="0" parent="frLlcrFo8pHCrfh-rTs9-68">
          <mxGeometry x="-0.365" y="3" relative="1" as="geometry">
            <mxPoint x="-26" y="-12" as="offset" />
          </mxGeometry>
        </mxCell>
        <mxCell id="frLlcrFo8pHCrfh-rTs9-63" value="" style="rounded=0;whiteSpace=wrap;html=1;labelBackgroundColor=none;fillColor=none;" vertex="1" parent="1">
          <mxGeometry x="630" y="550" width="20" height="60" as="geometry" />
        </mxCell>
        <mxCell id="frLlcrFo8pHCrfh-rTs9-70" value="" style="endArrow=none;dashed=1;html=1;dashPattern=1 3;strokeWidth=2;rounded=0;" edge="1" parent="1" source="frLlcrFo8pHCrfh-rTs9-80">
          <mxGeometry width="50" height="50" relative="1" as="geometry">
            <mxPoint x="640" y="850" as="sourcePoint" />
            <mxPoint x="639.63" y="610" as="targetPoint" />
          </mxGeometry>
        </mxCell>
        <mxCell id="frLlcrFo8pHCrfh-rTs9-72" value="" style="endArrow=none;dashed=1;html=1;dashPattern=1 3;strokeWidth=2;rounded=0;" edge="1" parent="1" source="frLlcrFo8pHCrfh-rTs9-90" target="frLlcrFo8pHCrfh-rTs9-71">
          <mxGeometry width="50" height="50" relative="1" as="geometry">
            <mxPoint x="320" y="850" as="sourcePoint" />
            <mxPoint x="320" y="550" as="targetPoint" />
          </mxGeometry>
        </mxCell>
        <mxCell id="frLlcrFo8pHCrfh-rTs9-71" value="" style="rounded=0;whiteSpace=wrap;html=1;labelBackgroundColor=none;fillColor=none;" vertex="1" parent="1">
          <mxGeometry x="310" y="610" width="20" height="60" as="geometry" />
        </mxCell>
        <mxCell id="frLlcrFo8pHCrfh-rTs9-73" value="" style="endArrow=classic;html=1;rounded=0;exitX=0;exitY=0.75;exitDx=0;exitDy=0;entryX=1;entryY=0.25;entryDx=0;entryDy=0;" edge="1" parent="1" source="frLlcrFo8pHCrfh-rTs9-66" target="frLlcrFo8pHCrfh-rTs9-71">
          <mxGeometry width="50" height="50" relative="1" as="geometry">
            <mxPoint x="800" y="515" as="sourcePoint" />
            <mxPoint x="340" y="515" as="targetPoint" />
          </mxGeometry>
        </mxCell>
        <mxCell id="frLlcrFo8pHCrfh-rTs9-74" value="pass done" style="edgeLabel;html=1;align=center;verticalAlign=middle;resizable=0;points=[];" vertex="1" connectable="0" parent="frLlcrFo8pHCrfh-rTs9-73">
          <mxGeometry x="0.0972" y="-1" relative="1" as="geometry">
            <mxPoint x="-50" y="-14" as="offset" />
          </mxGeometry>
        </mxCell>
        <mxCell id="frLlcrFo8pHCrfh-rTs9-75" value="" style="endArrow=none;dashed=1;html=1;dashPattern=1 3;strokeWidth=2;rounded=0;" edge="1" parent="1" target="frLlcrFo8pHCrfh-rTs9-66">
          <mxGeometry width="50" height="50" relative="1" as="geometry">
            <mxPoint x="960" y="1080" as="sourcePoint" />
            <mxPoint x="960" y="270" as="targetPoint" />
          </mxGeometry>
        </mxCell>
        <mxCell id="frLlcrFo8pHCrfh-rTs9-66" value="" style="rounded=0;whiteSpace=wrap;html=1;labelBackgroundColor=none;fillColor=none;" vertex="1" parent="1">
          <mxGeometry x="950" y="580" width="20" height="60" as="geometry" />
        </mxCell>
        <mxCell id="frLlcrFo8pHCrfh-rTs9-76" value="" style="rounded=0;whiteSpace=wrap;html=1;labelBackgroundColor=none;fillColor=none;" vertex="1" parent="1">
          <mxGeometry x="470" y="640" width="20" height="60" as="geometry" />
        </mxCell>
        <mxCell id="frLlcrFo8pHCrfh-rTs9-77" value="" style="endArrow=classic;html=1;rounded=0;exitX=1;exitY=0.75;exitDx=0;exitDy=0;entryX=0;entryY=0.25;entryDx=0;entryDy=0;" edge="1" parent="1" source="frLlcrFo8pHCrfh-rTs9-71" target="frLlcrFo8pHCrfh-rTs9-76">
          <mxGeometry width="50" height="50" relative="1" as="geometry">
            <mxPoint x="340" y="545" as="sourcePoint" />
            <mxPoint x="480" y="545" as="targetPoint" />
          </mxGeometry>
        </mxCell>
        <mxCell id="frLlcrFo8pHCrfh-rTs9-78" value="Run post processors" style="edgeLabel;html=1;align=center;verticalAlign=middle;resizable=0;points=[];labelBackgroundColor=none;" vertex="1" connectable="0" parent="frLlcrFo8pHCrfh-rTs9-77">
          <mxGeometry x="-0.365" y="3" relative="1" as="geometry">
            <mxPoint x="26" y="-12" as="offset" />
          </mxGeometry>
        </mxCell>
        <mxCell id="frLlcrFo8pHCrfh-rTs9-79" value="" style="endArrow=none;dashed=1;html=1;dashPattern=1 3;strokeWidth=2;rounded=0;entryX=0.5;entryY=1;entryDx=0;entryDy=0;" edge="1" parent="1" target="frLlcrFo8pHCrfh-rTs9-76">
          <mxGeometry width="50" height="50" relative="1" as="geometry">
            <mxPoint x="480" y="1050" as="sourcePoint" />
            <mxPoint x="479.63" y="800" as="targetPoint" />
          </mxGeometry>
        </mxCell>
        <mxCell id="frLlcrFo8pHCrfh-rTs9-83" value="" style="endArrow=none;dashed=1;html=1;dashPattern=1 3;strokeWidth=2;rounded=0;" edge="1" parent="1" target="frLlcrFo8pHCrfh-rTs9-80">
          <mxGeometry width="50" height="50" relative="1" as="geometry">
            <mxPoint x="640" y="1080" as="sourcePoint" />
            <mxPoint x="639.63" y="610" as="targetPoint" />
          </mxGeometry>
        </mxCell>
        <mxCell id="frLlcrFo8pHCrfh-rTs9-80" value="" style="rounded=0;whiteSpace=wrap;html=1;labelBackgroundColor=none;fillColor=none;" vertex="1" parent="1">
          <mxGeometry x="630" y="670" width="20" height="60" as="geometry" />
        </mxCell>
        <mxCell id="frLlcrFo8pHCrfh-rTs9-84" value="" style="endArrow=classic;html=1;rounded=0;exitX=1;exitY=0.75;exitDx=0;exitDy=0;entryX=0;entryY=0.25;entryDx=0;entryDy=0;" edge="1" parent="1" source="frLlcrFo8pHCrfh-rTs9-76" target="frLlcrFo8pHCrfh-rTs9-80">
          <mxGeometry width="50" height="50" relative="1" as="geometry">
            <mxPoint x="480" y="680" as="sourcePoint" />
            <mxPoint x="620" y="680" as="targetPoint" />
          </mxGeometry>
        </mxCell>
        <mxCell id="frLlcrFo8pHCrfh-rTs9-85" value="Locate post processors" style="edgeLabel;html=1;align=center;verticalAlign=middle;resizable=0;points=[];labelBackgroundColor=none;" vertex="1" connectable="0" parent="frLlcrFo8pHCrfh-rTs9-84">
          <mxGeometry x="-0.365" y="3" relative="1" as="geometry">
            <mxPoint x="26" y="-12" as="offset" />
          </mxGeometry>
        </mxCell>
        <mxCell id="frLlcrFo8pHCrfh-rTs9-86" value="" style="rounded=0;whiteSpace=wrap;html=1;labelBackgroundColor=none;fillColor=none;" vertex="1" parent="1">
          <mxGeometry x="1110" y="700" width="20" height="60" as="geometry" />
        </mxCell>
        <mxCell id="frLlcrFo8pHCrfh-rTs9-87" value="" style="endArrow=classic;html=1;rounded=0;exitX=1;exitY=0.75;exitDx=0;exitDy=0;entryX=0;entryY=0.25;entryDx=0;entryDy=0;" edge="1" parent="1" source="frLlcrFo8pHCrfh-rTs9-80" target="frLlcrFo8pHCrfh-rTs9-86">
          <mxGeometry width="50" height="50" relative="1" as="geometry">
            <mxPoint x="670" y="690" as="sourcePoint" />
            <mxPoint x="970" y="690" as="targetPoint" />
          </mxGeometry>
        </mxCell>
        <mxCell id="frLlcrFo8pHCrfh-rTs9-88" value="process entities" style="edgeLabel;html=1;align=center;verticalAlign=middle;resizable=0;points=[];labelBackgroundColor=none;" vertex="1" connectable="0" parent="frLlcrFo8pHCrfh-rTs9-87">
          <mxGeometry x="-0.365" y="3" relative="1" as="geometry">
            <mxPoint x="-76" y="-12" as="offset" />
          </mxGeometry>
        </mxCell>
        <mxCell id="frLlcrFo8pHCrfh-rTs9-89" value="" style="endArrow=none;dashed=1;html=1;dashPattern=1 3;strokeWidth=2;rounded=0;entryX=0.5;entryY=1;entryDx=0;entryDy=0;" edge="1" parent="1" target="frLlcrFo8pHCrfh-rTs9-86">
          <mxGeometry width="50" height="50" relative="1" as="geometry">
            <mxPoint x="1120" y="1130" as="sourcePoint" />
            <mxPoint x="1190" y="520" as="targetPoint" />
          </mxGeometry>
        </mxCell>
        <mxCell id="frLlcrFo8pHCrfh-rTs9-91" value="" style="endArrow=none;dashed=1;html=1;dashPattern=1 3;strokeWidth=2;rounded=0;" edge="1" parent="1" source="frLlcrFo8pHCrfh-rTs9-94" target="frLlcrFo8pHCrfh-rTs9-90">
          <mxGeometry width="50" height="50" relative="1" as="geometry">
            <mxPoint x="320" y="1040" as="sourcePoint" />
            <mxPoint x="320" y="670" as="targetPoint" />
          </mxGeometry>
        </mxCell>
        <mxCell id="frLlcrFo8pHCrfh-rTs9-90" value="" style="rounded=0;whiteSpace=wrap;html=1;labelBackgroundColor=none;fillColor=none;" vertex="1" parent="1">
          <mxGeometry x="310" y="730" width="20" height="60" as="geometry" />
        </mxCell>
        <mxCell id="frLlcrFo8pHCrfh-rTs9-92" value="" style="endArrow=classic;html=1;rounded=0;exitX=0;exitY=0.75;exitDx=0;exitDy=0;entryX=1;entryY=0.25;entryDx=0;entryDy=0;" edge="1" parent="1" source="frLlcrFo8pHCrfh-rTs9-86" target="frLlcrFo8pHCrfh-rTs9-90">
          <mxGeometry width="50" height="50" relative="1" as="geometry">
            <mxPoint x="1010" y="750" as="sourcePoint" />
            <mxPoint x="390" y="750" as="targetPoint" />
          </mxGeometry>
        </mxCell>
        <mxCell id="frLlcrFo8pHCrfh-rTs9-93" value="pass done" style="edgeLabel;html=1;align=center;verticalAlign=middle;resizable=0;points=[];" vertex="1" connectable="0" parent="frLlcrFo8pHCrfh-rTs9-92">
          <mxGeometry x="0.0972" y="-1" relative="1" as="geometry">
            <mxPoint x="-122" y="-14" as="offset" />
          </mxGeometry>
        </mxCell>
        <mxCell id="frLlcrFo8pHCrfh-rTs9-97" value="" style="endArrow=none;dashed=1;html=1;dashPattern=1 3;strokeWidth=2;rounded=0;" edge="1" parent="1" source="frLlcrFo8pHCrfh-rTs9-108" target="frLlcrFo8pHCrfh-rTs9-94">
          <mxGeometry width="50" height="50" relative="1" as="geometry">
            <mxPoint x="320" y="1040" as="sourcePoint" />
            <mxPoint x="320" y="790" as="targetPoint" />
          </mxGeometry>
        </mxCell>
        <mxCell id="frLlcrFo8pHCrfh-rTs9-94" value="" style="rounded=0;whiteSpace=wrap;html=1;labelBackgroundColor=none;fillColor=none;" vertex="1" parent="1">
          <mxGeometry x="310" y="820" width="20" height="60" as="geometry" />
        </mxCell>
        <mxCell id="frLlcrFo8pHCrfh-rTs9-98" value="" style="endArrow=classic;html=1;rounded=0;exitX=1;exitY=0.75;exitDx=0;exitDy=0;entryX=1;entryY=0.25;entryDx=0;entryDy=0;" edge="1" parent="1" source="frLlcrFo8pHCrfh-rTs9-90" target="frLlcrFo8pHCrfh-rTs9-94">
          <mxGeometry width="50" height="50" relative="1" as="geometry">
            <mxPoint x="360" y="790" as="sourcePoint" />
            <mxPoint x="360" y="850" as="targetPoint" />
            <Array as="points">
              <mxPoint x="400" y="775" />
              <mxPoint x="400" y="835" />
            </Array>
          </mxGeometry>
        </mxCell>
        <mxCell id="frLlcrFo8pHCrfh-rTs9-99" value="Render" style="edgeLabel;html=1;align=center;verticalAlign=middle;resizable=0;points=[];" vertex="1" connectable="0" parent="frLlcrFo8pHCrfh-rTs9-98">
          <mxGeometry x="-0.6581" y="-4" relative="1" as="geometry">
            <mxPoint x="6" y="41" as="offset" />
          </mxGeometry>
        </mxCell>
        <mxCell id="frLlcrFo8pHCrfh-rTs9-100" value="" style="endArrow=none;dashed=1;html=1;dashPattern=1 3;strokeWidth=2;rounded=0;exitX=0.5;exitY=0;exitDx=0;exitDy=0;" edge="1" source="frLlcrFo8pHCrfh-rTs9-102" parent="1">
          <mxGeometry width="50" height="50" relative="1" as="geometry">
            <mxPoint x="1280" y="850" as="sourcePoint" />
            <mxPoint x="1280" y="270" as="targetPoint" />
          </mxGeometry>
        </mxCell>
        <mxCell id="frLlcrFo8pHCrfh-rTs9-101" value="Graphics Service" style="rounded=1;whiteSpace=wrap;html=1;labelBackgroundColor=none;fillColor=none;" vertex="1" parent="1">
          <mxGeometry x="1220" y="210" width="120" height="60" as="geometry" />
        </mxCell>
        <mxCell id="frLlcrFo8pHCrfh-rTs9-102" value="" style="rounded=0;whiteSpace=wrap;html=1;labelBackgroundColor=none;fillColor=none;" vertex="1" parent="1">
          <mxGeometry x="1270" y="850" width="20" height="60" as="geometry" />
        </mxCell>
        <mxCell id="frLlcrFo8pHCrfh-rTs9-103" value="" style="endArrow=none;dashed=1;html=1;dashPattern=1 3;strokeWidth=2;rounded=0;entryX=0.5;entryY=1;entryDx=0;entryDy=0;" edge="1" target="frLlcrFo8pHCrfh-rTs9-102" parent="1">
          <mxGeometry width="50" height="50" relative="1" as="geometry">
            <mxPoint x="1280" y="1130" as="sourcePoint" />
            <mxPoint x="1350" y="520" as="targetPoint" />
          </mxGeometry>
        </mxCell>
        <mxCell id="frLlcrFo8pHCrfh-rTs9-104" value="" style="endArrow=classic;html=1;rounded=0;exitX=1;exitY=0.75;exitDx=0;exitDy=0;entryX=0;entryY=0.25;entryDx=0;entryDy=0;" edge="1" parent="1" source="frLlcrFo8pHCrfh-rTs9-94" target="frLlcrFo8pHCrfh-rTs9-102">
          <mxGeometry width="50" height="50" relative="1" as="geometry">
            <mxPoint x="370" y="860" as="sourcePoint" />
            <mxPoint x="510" y="860" as="targetPoint" />
          </mxGeometry>
        </mxCell>
        <mxCell id="frLlcrFo8pHCrfh-rTs9-105" value="draw call" style="edgeLabel;html=1;align=center;verticalAlign=middle;resizable=0;points=[];labelBackgroundColor=none;" vertex="1" connectable="0" parent="frLlcrFo8pHCrfh-rTs9-104">
          <mxGeometry x="-0.365" y="3" relative="1" as="geometry">
            <mxPoint x="-228" y="-12" as="offset" />
          </mxGeometry>
        </mxCell>
        <mxCell id="frLlcrFo8pHCrfh-rTs9-107" value="main loop" style="shape=umlFrame;whiteSpace=wrap;html=1;pointerEvents=0;width=80;height=30;" vertex="1" parent="1">
          <mxGeometry x="200" y="357" width="1120" height="580" as="geometry" />
        </mxCell>
        <mxCell id="frLlcrFo8pHCrfh-rTs9-110" value="" style="endArrow=none;dashed=1;html=1;dashPattern=1 3;strokeWidth=2;rounded=0;" edge="1" parent="1" target="frLlcrFo8pHCrfh-rTs9-108">
          <mxGeometry width="50" height="50" relative="1" as="geometry">
            <mxPoint x="320" y="1040" as="sourcePoint" />
            <mxPoint x="320" y="880" as="targetPoint" />
          </mxGeometry>
        </mxCell>
        <mxCell id="frLlcrFo8pHCrfh-rTs9-108" value="" style="rounded=0;whiteSpace=wrap;html=1;labelBackgroundColor=none;fillColor=none;" vertex="1" parent="1">
          <mxGeometry x="310" y="880" width="20" height="130" as="geometry" />
        </mxCell>
        <mxCell id="frLlcrFo8pHCrfh-rTs9-111" value="" style="endArrow=classic;html=1;rounded=0;exitX=0;exitY=0.75;exitDx=0;exitDy=0;entryX=1.005;entryY=0.118;entryDx=0;entryDy=0;entryPerimeter=0;" edge="1" parent="1" source="frLlcrFo8pHCrfh-rTs9-102" target="frLlcrFo8pHCrfh-rTs9-108">
          <mxGeometry width="50" height="50" relative="1" as="geometry">
            <mxPoint x="1170" y="900" as="sourcePoint" />
            <mxPoint x="340" y="895" as="targetPoint" />
          </mxGeometry>
        </mxCell>
        <mxCell id="frLlcrFo8pHCrfh-rTs9-112" value="pass done" style="edgeLabel;html=1;align=center;verticalAlign=middle;resizable=0;points=[];" vertex="1" connectable="0" parent="frLlcrFo8pHCrfh-rTs9-111">
          <mxGeometry x="0.0972" y="-1" relative="1" as="geometry">
            <mxPoint x="-194" y="-14" as="offset" />
          </mxGeometry>
        </mxCell>
        <mxCell id="frLlcrFo8pHCrfh-rTs9-115" value="" style="endArrow=none;dashed=1;html=1;dashPattern=1 3;strokeWidth=2;rounded=0;" edge="1" parent="1" target="frLlcrFo8pHCrfh-rTs9-113">
          <mxGeometry width="50" height="50" relative="1" as="geometry">
            <mxPoint x="160" y="1080" as="sourcePoint" />
            <mxPoint x="160" y="270" as="targetPoint" />
          </mxGeometry>
        </mxCell>
        <mxCell id="frLlcrFo8pHCrfh-rTs9-113" value="" style="rounded=0;whiteSpace=wrap;html=1;labelBackgroundColor=none;fillColor=none;" vertex="1" parent="1">
          <mxGeometry x="150" y="960" width="20" height="60" as="geometry" />
        </mxCell>
        <mxCell id="frLlcrFo8pHCrfh-rTs9-116" value="" style="endArrow=classic;html=1;rounded=0;exitX=0;exitY=0.75;exitDx=0;exitDy=0;entryX=1;entryY=0.25;entryDx=0;entryDy=0;" edge="1" parent="1" source="frLlcrFo8pHCrfh-rTs9-108" target="frLlcrFo8pHCrfh-rTs9-113">
          <mxGeometry width="50" height="50" relative="1" as="geometry">
            <mxPoint x="-50" y="920" as="sourcePoint" />
            <mxPoint x="90" y="920" as="targetPoint" />
          </mxGeometry>
        </mxCell>
        <mxCell id="frLlcrFo8pHCrfh-rTs9-117" value="program exit" style="edgeLabel;html=1;align=center;verticalAlign=middle;resizable=0;points=[];labelBackgroundColor=none;" vertex="1" connectable="0" parent="frLlcrFo8pHCrfh-rTs9-116">
          <mxGeometry x="-0.365" y="3" relative="1" as="geometry">
            <mxPoint x="-26" y="-18" as="offset" />
          </mxGeometry>
        </mxCell>
        <mxCell id="frLlcrFo8pHCrfh-rTs9-119" value="Game Core" style="swimlane;whiteSpace=wrap;html=1;fillStyle=solid;fillColor=#FFFFFF;" vertex="1" parent="1">
          <mxGeometry x="70" y="157" width="490" height="890" as="geometry">
            <mxRectangle x="70" y="157" width="100" height="30" as="alternateBounds" />
          </mxGeometry>
        </mxCell>
        <mxCell id="frLlcrFo8pHCrfh-rTs9-121" value="" style="endArrow=none;dashed=1;html=1;dashPattern=1 3;strokeWidth=2;rounded=0;entryX=0.5;entryY=1;entryDx=0;entryDy=0;" edge="1" parent="1" source="frLlcrFo8pHCrfh-rTs9-41" target="frLlcrFo8pHCrfh-rTs9-6">
          <mxGeometry width="50" height="50" relative="1" as="geometry">
            <mxPoint x="480" y="400" as="sourcePoint" />
            <mxPoint x="480" y="270" as="targetPoint" />
          </mxGeometry>
        </mxCell>
        <mxCell id="frLlcrFo8pHCrfh-rTs9-122" value="Commonly Accessible" style="swimlane;whiteSpace=wrap;html=1;fillStyle=solid;fillColor=#FFFFFF;" vertex="1" parent="1">
          <mxGeometry x="560" y="157" width="640" height="890" as="geometry" />
        </mxCell>
        <mxCell id="frLlcrFo8pHCrfh-rTs9-126" value="Third Party" style="swimlane;whiteSpace=wrap;html=1;fillStyle=solid;fillColor=#FFFFFF;" vertex="1" parent="1">
          <mxGeometry x="1200" y="157" width="160" height="890" as="geometry" />
        </mxCell>
        <mxCell id="frLlcrFo8pHCrfh-rTs9-17" value="" style="rounded=0;whiteSpace=wrap;html=1;labelBackgroundColor=none;fillColor=default;" vertex="1" parent="1">
          <mxGeometry x="150" y="280" width="20" height="60" as="geometry" />
        </mxCell>
      </root>
    </mxGraphModel>
  </diagram>
</mxfile>
